HIERARCHY
ROOT ui
{
	 OFFSET 0 0 0
	 CHANNELS 3 XPosition YPosition Z Position
	 EndSite
	 {
	 OFFSET 0 -1 0
	 }
}
ROOT li
{
	 OFFSET 0 0 0
	 CHANNELS 3 XPosition YPosition Z Position
	 EndSite
	 {
	 OFFSET 0 -1 0
	 }
}
ROOT ul
{
	 OFFSET 0 0 0
	 CHANNELS 3 XPosition YPosition Z Position
	 EndSite
	 {
	 OFFSET 0 -1 0
	 }
}
ROOT ll
{
	 OFFSET 0 0 0
	 CHANNELS 3 XPosition YPosition Z Position
	 EndSite
	 {
	 OFFSET 0 -1 0
	 }
}
ROOT tt
{
	 OFFSET 0 0 0
	 CHANNELS 3 XPosition YPosition Z Position
	 EndSite
	 {
	 OFFSET 0 -1 0
	 }
}
ROOT tb
{
	 OFFSET 0 0 0
	 CHANNELS 3 XPosition YPosition Z Position
	 EndSite
	 {
	 OFFSET 0 -1 0
	 }
}
ROOT td
{
	 OFFSET 0 0 0
	 CHANNELS 3 XPosition YPosition Z Position
	 EndSite
	 {
	 OFFSET 0 -1 0
	 }
}
ROOT v
{
	 OFFSET 0 0 0
	 CHANNELS 3 XPosition YPosition Z Position
	 EndSite
	 {
	 OFFSET 0 -1 0
	 }
}
ROOT bn
{
	 OFFSET 0 0 0
	 CHANNELS 3 XPosition YPosition Z Position
	 EndSite
	 {
	 OFFSET 0 -1 0
	 }
}
MOTION
Frames: 16
Frame Time: 0.002
0.05281095123291016	0.004055381774902344	0		0.5250859985351563	-2.507356689453125	0		-0.9199120483398437	0.2046593475341797	0		-0.5450873413085937	-2.743155517578125	0		1.6469276123046874	-0.4721769104003906	0		3.35364501953125	-0.3272377014160156	0		4.6354873046875	-0.4060912780761719	0		5.73459814453125	0.2952821044921875	0		-0.03352035140991211	5.971392578125	0		
-0.031837444305419925	-1.7174400389194489E-4	0		0.48552365112304685	-2.497386474609375	0		-0.925507568359375	0.20214398193359376	0		-0.5227425537109375	-2.738175537109375	0		1.6601824951171875	-0.48118392944335936	0		3.360406494140625	-0.3072406311035156	0		4.63664599609375	-0.42108724975585937	0		5.74692041015625	0.2870252380371094	0		-0.1660458984375	5.95199462890625	0		
0.04149919891357422	-0.0050735602378845215	0		0.5366204833984375	-2.505946044921875	0		-0.9301453247070313	0.19864421081542968	0		-0.5594949951171875	-2.736154541015625	0		1.639585205078125	-0.4795902099609375	0		3.341735107421875	-0.31079925537109376	0		4.63603271484375	-0.4210447082519531	0		5.73735791015625	0.2871448059082031	0		-0.16719668579101563	5.9533896484375	0		
-0.037076778411865234	-0.0023353440761566162	0		0.5016295776367188	-2.517001220703125	0		-0.926666748046875	0.20303915405273437	0		-0.526357666015625	-2.73930322265625	0		1.64508251953125	-0.4714195556640625	0		3.337022216796875	-0.31557952880859375	0		4.6353974609375	-0.42099002075195313	0		5.75061767578125	0.27787826538085936	0		-0.16638018798828125	5.95278076171875	0		
0.050444076538085934	0.00556993579864502	0		0.532880126953125	-2.513166259765625	0		-0.9181530151367188	0.21038133239746093	0		-0.5560283203125	-2.72933349609375	0		1.6641446533203126	-0.4874609375	0		3.3570615234375	-0.33376715087890624	0		4.633708984375	-0.4228980712890625	0		5.7551376953125	0.28477972412109376	0		-0.16559930419921876	5.950205078125	0		
-0.027163202285766602	0.008369172096252441	0		0.5222059936523438	-2.503571533203125	0		-0.8868478393554687	0.20635980224609374	0		-0.4920613098144531	-2.73995654296875	0		1.660418212890625	-0.4900744323730469	0		3.357868408203125	-0.30658648681640627	0		4.64402001953125	-0.42398651123046877	0		5.7586787109375	0.2937243347167969	0		-0.019186189651489258	5.98313525390625	0		
0.04203516387939453	-3.5104000568389894E-4	0		0.5162374877929687	-2.510023681640625	0		-0.92347802734375	0.20755831909179687	0		-0.5628460083007812	-2.734195068359375	0		1.65358935546875	-0.49759768676757815	0		3.327690185546875	-0.33483682250976565	0		4.63338916015625	-0.4206741027832031	0		5.74906884765625	0.29493267822265623	0		-0.034544052124023436	5.973900390625	0		
-0.0396561393737793	-3.942300081253052E-4	0		0.5153746948242187	-2.509526123046875	0		-0.8922057495117187	0.2036060791015625	0		-0.5009465637207031	-2.74671826171875	0		1.654706298828125	-0.5072215881347656	0		3.3551845703125	-0.3240499572753906	0		4.638546875	-0.42859902954101564	0		5.743283203125	0.2871145935058594	0		-0.21542518615722656	5.937607421875	0		
-0.040343563079833986	1.8404799699783326E-4	0		0.4973925170898438	-2.514689453125	0		-0.9248021240234375	0.20881312561035156	0		-0.5578349609375	-2.745117431640625	0		1.664172607421875	-0.49595071411132813	0		3.3443505859375	-0.3305534362792969	0		4.63782666015625	-0.4283779296875	0		5.74261767578125	0.2872513427734375	0		-0.1673492889404297	5.955349609375	0		
0.04402703475952149	0.004293985843658447	0		0.5244954833984375	-2.514609619140625	0		-0.8894967651367187	0.20885769653320313	0		-0.5207330932617188	-2.7441357421875	0		1.674198974609375	-0.5086549377441406	0		3.358778076171875	-0.32145755004882814	0		4.641177734375	-0.42318331909179685	0		5.756056640625	0.29418594360351563	0		-0.16764411926269532	5.9539755859375	0		
0.039256519317626956	0.002012815952301025	0		0.48576202392578127	-2.50432275390625	0		-0.926194091796875	0.21021238708496093	0		-0.568481689453125	-2.733613525390625	0		1.67933642578125	-0.5142310180664063	0		3.352842041015625	-0.3319587707519531	0		4.64042919921875	-0.42286770629882814	0		5.75951904296875	0.3033486022949219	0		-0.03554465103149414	5.975287109375	0		
0.03852476119995117	0.0026971490383148194	0		0.5097655944824219	-2.5091142578125	0		-0.8949881591796875	0.2063922119140625	0		-0.5385303955078125	-2.740439697265625	0		1.6711778564453126	-0.5355303955078125	0		3.376190673828125	-0.325930419921875	0		4.6523984375	-0.43772772216796874	0		5.766806640625	0.3034989013671875	0		-0.035867874145507815	5.9759765625	0		
-0.043251430511474606	0.002868099927902222	0		0.4808739013671875	-2.50692333984375	0		-0.93270458984375	0.208834228515625	0		-0.5764354858398437	-2.7380205078125	0		1.66731884765625	-0.53886083984375	0		3.3472236328125	-0.3359210205078125	0		4.645779296875	-0.4281972961425781	0		5.766072265625	0.3038519592285156	0		-0.050433773040771485	5.96595361328125	0		
-0.04403766250610352	0.0036256959438323976	0		0.52660693359375	-2.525038818359375	0		-0.92351611328125	0.20746543884277344	0		-0.5315902099609375	-2.74905615234375	0		1.663428955078125	-0.5421506958007812	0		3.36139697265625	-0.33663494873046873	0		4.6508046875	-0.4368255920410156	0		5.75730517578125	0.30440704345703123	0		-0.20116383361816406	5.95141064453125	0		
-0.023011604309082032	-0.003982091903686523	0		0.5037701721191407	-2.5168876953125	0		-0.9143505859375	0.2071217041015625	0		-0.5505662841796874	-2.7479169921875	0		1.683298583984375	-0.5568341064453125	0		3.37518896484375	-0.3563037109375	0		4.64791796875	-0.4382624206542969	0		5.76933154296875	0.29563949584960936	0		-0.16661125183105469	5.9545751953125	0		
0.05716263580322266	-0.001633826971054077	0		0.5536207885742187	-2.525022216796875	0		-0.8941014404296875	0.21360026550292968	0		-0.5207062377929688	-2.754635986328125	0		1.6673154296875	-0.5608369140625	0		3.38184521484375	-0.32579727172851564	0		4.65800927734375	-0.4388888854980469	0		5.76878759765625	0.313151123046875	0		-0.03575808334350586	5.9770234375	0		
